<svg version="1.2" xmlns="http://www.w3.org/2000/svg" viewBox="-35.62016160332541 -37.691688510905685 420.2423270535775 447.3753616341046" width="421" height="448">
	<style>
		.s0 { fill: #ffffff } 
	</style>
	<g id="Layer 1">
		<path class="s0" d="m255.44 6.37c29.06 0.24 58.88 1.44 87.79 1.24-3.72 4.02-7.44 8.7-10.96 12.95q-18.31 21.14-37.33 41.64c-3.33 28.74-5.83 57.93-8.8 86.73l-10.8 101.66c-3.06 31.17-5.19 63.95-9.39 94.91-23.73-32.89-48.79-64.82-75.11-95.67-9.5-10.95-19.45-21.27-29.16-31.98-10.71-11.81-21.11-24.29-31.99-35.91-0.14 5.08-0.88 9.8-1.38 14.83-4.15 42.26-10.41 84.52-14.45 126.75-8.33 5.7-18.52 11.09-27.23 16.55-13.97 8.76-27.8 17.68-42.29 25.55 2.72-25.39 3.94-51.19 6.32-76.66 2.94-31.62 6.18-63.04 10.28-94.55 1.66-12.84 2.43-25.95 3.85-38.84q4.56-40.07 10.38-79.97c-18.43-19.54-38.35-38.43-57.41-57.37-3.57-2.92-8.75-8.17-11.99-11.62l50.69 0.93c10.2 0.13 24.84-0.07 34.63 1.13 4.03 4.89 7.73 10.88 11.34 16.12 15.96 23.13 33.57 45.07 50.73 67.3q23.18 29.85 44.87 60.78c5.99 8.65 12.78 18.3 18.08 27.31 1.11-2.53 3.17-26.15 3.78-31.07l7.99-61.39c1.11-9.22 2.98-21.76 3.03-30.76-2.35-3.48-4.94-8.06-7.12-11.71 0.93-1.26 1.24-1.65 2.36-2.82 3.26-5.56 10.35-13.28 14.66-18.5 4.78-5.77 9.74-11.94 14.63-17.56z"/>
	</g>
</svg>