<svg version="1.2" xmlns="http://www.w3.org/2000/svg" viewBox="0 0 1024 1024" width="1024" height="1024">
	<defs>
		<linearGradient id="g1" x2="1" gradientUnits="userSpaceOnUse" gradientTransform="matrix(-8.913,35.416,-76.146,-19.162,918.105,492.924)">
			<stop offset="0" stop-color="#0d6164"/>
			<stop offset="1" stop-color="#09886b"/>
		</linearGradient>
		<linearGradient id="g2" x2="1" gradientUnits="userSpaceOnUse" gradientTransform="matrix(-32.555,-354.853,330.007,-30.276,540.605,653.674)">
			<stop offset="0" stop-color="#46d5cc"/>
			<stop offset="1" stop-color="#9dffef"/>
		</linearGradient>
		<linearGradient id="g3" x2="1" gradientUnits="userSpaceOnUse" gradientTransform="matrix(298.33,259.647,-177.824,204.317,444.408,145.836)">
			<stop offset="0" stop-color="#22baa4"/>
			<stop offset="1" stop-color="#25f7e1"/>
		</linearGradient>
		<linearGradient id="g4" x2="1" gradientUnits="userSpaceOnUse" gradientTransform="matrix(284.138,-56.986,64.866,323.426,610.857,311.762)">
			<stop offset="0" stop-color="#15b2ba"/>
			<stop offset="1" stop-color="#35cbbf"/>
		</linearGradient>
		<linearGradient id="g5" x2="1" gradientUnits="userSpaceOnUse" gradientTransform="matrix(-3.226,-12.651,106.247,-27.095,657.919,146.545)">
			<stop offset="0" stop-color="#120041"/>
			<stop offset="1" stop-color="#18547c"/>
		</linearGradient>
	</defs>
	<style>
		.s0 { fill: #150c4b } 
		.s1 { fill: #17b795 } 
		.s2 { fill: #0c9c79 } 
		.s3 { fill: #05033c } 
		.s4 { fill: #0f4175 } 
		.s5 { fill: #fffefd } 
		.s6 { fill: #0f7766 } 
		.s7 { fill: url(#g1) } 
		.s8 { fill: #4c76c0 } 
		.s9 { fill: #1d1e54 } 
		.s10 { fill: #0ae6e1 } 
		.s11 { fill: url(#g2) } 
		.s12 { fill: #b544c7 } 
		.s13 { fill: #6d278e } 
		.s14 { fill: #a72d7f } 
		.s15 { fill: #f0548c } 
		.s16 { fill: #8f31a7 } 
		.s17 { fill: url(#g3) } 
		.s18 { fill: url(#g4) } 
		.s19 { fill: #128d8e } 
		.s20 { fill: #f87f7f } 
		.s21 { fill: url(#g5) } 
		.s22 { fill: #ed43b3 } 
		.s23 { fill: #febce2 } 
		.s24 { fill: #654736 } 
		.s25 { fill: #9172e2 } 
		.s26 { fill: #feb350 } 
		.s27 { fill: #e88a28 } 
		.s28 { fill: #fefe8e } 
		.s29 { fill: #fffc6a } 
		.s30 { fill: #030320 } 
		.s31 { fill: #45cbe4 } 
	</style>
	<g id="Layer 1">
		<path class="s0" d="m596.32 154.32l0.67-0.3c14.13-6.43 27.55-17.01 42.71-23.93 60.18-27.49 130.23-45.29 195.05-23.3 19.13 6.51 32.58 14.94 47.52 28.2 17.19 15.27 28.43 25.61 38.59 46.49 27.34 56.19 6.54 112.69-26.32 160.65-4.2 6.13-12.88 14.66-15.62 21.23-2.22 1.64-8.29 4.66-11.75 7.08-1.66-4.4-3.86-9.28-5.71-13.65-16.29 18.29-32.88 36.7-51.61 52.46-4.15 3.5-12.23 10.69-16.72 13.52 2.47 9.21 5.03 18.4 6.73 27.79 9.05 50.1 4.45 95.75-9.07 144.29 3.63-0.92 24.21-23.13 28.16-27.91 10.8-13.08 22.55-30.14 26.82-46.65 1.45-5.61 1.24-14.3 0.75-20.01 6.97 3.72 16.27 11.88 16.6 20.4 4.06 3.25 8.75 5.73 13.02 8.76 5.52 3.92 10.12 8.26 14.95 12.94-0.79-3.95-3.46-12.29-4.98-16.23-6.13-5.2-13.08-26.88-10.54-35.06 0.43-1.4 2.57-3.05 4.04-3.35 19.47-3.89 39.83 4.91 55.97 15.2 4.6 2.93 8.33 6.76 12.76 8.94-3.17-7-9.62-15.03-14.46-21.07l0.98-1.37c6.39 5.62 23.45 30.36 26.35 38.08 1.93 2.93 4.13 5.27 2.52 8.87 2.84 5.14 6.32 10.66 8.68 15.95 9.64 21.65 11.38 46 4.9 68.8-7.51 25.91-25.11 47.71-48.84 60.53-16.4 8.87-33.91 13.85-52.64 11.45-1.81-0.24-10.96-2-11.78-0.78-2.68 4.05-3.86 9.18-6.36 13.4-2.56 5.83-9.52 15.12-11.46 20.04l-1.49 1.02 0.15 0.85c-0.3 2.08-0.43 2.06-1.82 3.7l-0.51 0.61c-4.9 6.53-8.84 13.79-13.53 20.31-14.91 20.79-32.28 39.61-50.54 57.46-0.61 0.59-1.16 1.83-1.48 2.6-2.95 2.42-4.93 4.09-7.59 6.79-3.86 1.71-8.7 5.74-12.25 8.23-8.06 5.65-15.95 11.64-24.03 17.27-20.55 13.58-44.14 25.98-67.23 34.48-39.7 15.03-81.79 22.72-124.24 22.68-13.76 0.03-30.43-1.89-44.22-1.06-3.83 0.24-10.75 4.61-14.55 5.99-19.85 9-39.83 17.74-59.76 26.54-12.19 5.38-24.28 12.23-36.77 16.79 14.03-14.76 28.29-29.27 41.84-44.48 2.25-2.53 4.77-5.48 7.16-7.84l-0.6-0.35c-6.28 0.17-39.77 19.52-51.32 23.36 4-6.33 28.62-32.97 29.09-36.25-10.53-3.75-21.4-7.56-31.64-12.04-33.39-14.97-64.38-34.81-91.94-58.88-5.91-5.26-14.6-13.01-19.68-18.96-1.64 2.48-4.4 5.16-6.56 7.22-29.15 27.73-68.08 32.85-104.57 16.4-23.45-10.52-41.66-30.06-50.5-54.19-13.11-34.89-5.47-73.35 14-103.95 1.61-2.54 7-8.15 7.69-10.61-21.85-14.32-26.7-21.48-54.4-29.42l-0.3-0.93c-4.24 0.35-6.83 0.12-10.86-1.08l-7.19 2.8c2.15-1.91 4.51-4.02 7-5.41 17.72-16.67 42.51-27.94 66.65-30.71-2.76-3.51-5.25-8.14-7.9-11.82-5.84-8.09-13.66-15.36-21.62-21.31-1.86-1.35-4.64-2.75-6.71-3.88 14.55 0.47 38.09 22.8 47.95 33.34q3.88 4.18 7.7 8.42c-1.11-2.06-4.16-8.04-5.38-9.59-3.01-1.1-14.42-18.65-18.06-20.32-1.56 0.25-2.8 0.78-4.06-0.42-9.66-9.03-20.81-16.32-32.97-21.53-4.21-1.83-11.63-4.36-15.2-6.62l0.08-0.67c-3.73-1.44-11.57-1.6-15.82-1.81 3.07-1.11 6.04-2.17 9.27-2.68 27.2-9.19 56.76-8.56 83.54 1.78-2.34-60.08 6.79-115.51 31.65-170.59l-1.59 0.12c-0.58-1.11-7.03-6.33-8.76-8.11-9.96-10.21-20.17-24.1-24.42-37.78-6.16-19.8-5.08-48.94 4.49-67.46-4.63-14.93-7.76-27.24-6.74-43.28 1.76-24.53 13.05-47.39 31.46-63.69 18.7-16.24 46.93-25.12 71.55-23.18 4.3 0.34 27.85 4.16 29.68 6.27 1.11-5.03 1.65-9.76 2.3-14.85 0.65 3.98 1.61 12.36 2.46 15.88 5.59-1.23 26.32 17.63 31.47 21.99l-0.18 0.6-1.7 1.02c1.46 0.05 2.03 0 3.46-0.31 6.11 3.71 19.31 22.3 23.35 28.95 2.04 3.37 4.46 8.86 5.9 12.61 13.19-6.54 28.36-13.84 42.12-19.01 52.26-19.08 108.2-25.88 163.51-19.87 15.26 1.6 30.26 5.11 45.24 7.4z"/>
		<path class="s1" d="m182.71 357.01c14.65 9.6 28.56 13.95 46.16 14.74 2.28 9.28 4.5 13.64 13.41 17.96-5.07 12.26-8.99 20.45-13.02 33.4-20.53 66.13-20.22 135.89 7.24 199.99 23.28 54.35 54.79 92.13 101.45 127.3l0.83 0.47c5.16 2.98 10.59 7.2 15.68 10.49 29.61 19.16 62.24 31.96 96.86 38.62 10 1.92 20.11 3.37 30.05 5.31-7.63 9.55-17.31 19.08-25.27 28.51-4.62 5.45-8.85 11.23-13.67 16.52-4.47 5.02-9.89 11.73-14.29 16.37-0.06 0.39-0.11 1.01-0.4 1.29-5.09 5-9.91 8.83-14.01 14.78l-1.19 1.72c-10.53-3.75-21.4-7.56-31.64-12.04-33.39-14.97-64.38-34.81-91.94-58.88-5.91-5.26-14.6-13.01-19.68-18.96-1.64 2.48-4.4 5.16-6.56 7.22-29.15 27.73-68.08 32.85-104.57 16.4-23.45-10.52-41.66-30.06-50.5-54.19-13.11-34.89-5.47-73.35 14-103.95 1.61-2.54 7-8.15 7.69-10.61-21.85-14.32-26.7-21.48-54.4-29.42l-0.3-0.93c-4.24 0.35-6.83 0.12-10.86-1.08l-7.19 2.8c2.15-1.91 4.51-4.02 7-5.41 17.72-16.67 42.51-27.94 66.65-30.71-2.76-3.51-5.25-8.14-7.9-11.82-5.84-8.09-13.66-15.36-21.62-21.31-1.86-1.35-4.64-2.75-6.71-3.88 14.55 0.47 38.09 22.8 47.95 33.34q3.88 4.18 7.7 8.42c-1.11-2.06-4.16-8.04-5.38-9.59-3.01-1.1-14.42-18.65-18.06-20.32-1.56 0.25-2.8 0.78-4.06-0.42-9.66-9.03-20.81-16.32-32.97-21.53-4.21-1.83-11.63-4.36-15.2-6.62l0.08-0.67c-3.73-1.44-11.57-1.6-15.82-1.81 3.07-1.11 6.04-2.17 9.27-2.68 27.2-9.19 56.76-8.56 83.54 1.78-2.34-60.08 6.79-115.51 31.65-170.59z"/>
		<path class="s0" d="m63.78 618.04c26.99-6.54 60.27-2.18 80.16 18.67 2.99-1.2 4.81-2.24 8.03-2.16-22.68 16.67-40.78 43.03-45.02 71.11q-0.4 2.71-0.7 5.44c-0.36 0.97-0.86 9.06-0.97 10.68 5.57-11.84 10.16-21.05 21.82-28.99l0.89 0.35c9.85-6.39 18.9-11.41 31.36-9.08 11.1 2.09 19.68 12 25.96 20.77 2.6 3.64 3.49 8.62 6.66 11.12 0.74 0.58 0.64 0.57 0.82 1.54-2.32 1.52-9.07-0.25-11.17 0.72 2.31 1.93 12.95-1.68 15.7-0.23 0.62 1.96 0.91 4.26 1.4 5.64 2.91 8.22 6.78 16.45 10.63 24.26 2.44-6.19 4.16-11.94 9.09-16.6 4.27 5.71 8.06 11.91 12.16 17.33 6.24 8.23 13.25 17.1 19.83 25.06q6.07 7.32 12.56 14.26c1.16 1.24 5.56 5.67 6.29 6.67-1.64 2.48-4.4 5.16-6.56 7.22-29.15 27.73-68.08 32.85-104.56 16.4-23.46-10.52-41.67-30.06-50.51-54.19-13.11-34.89-5.47-73.35 14-103.95 1.61-2.54 7-8.15 7.69-10.61-21.85-14.32-26.7-21.48-54.4-29.42l-0.3-0.93c-4.24 0.35-6.83 0.12-10.86-1.08z"/>
		<path class="s2" d="m74.94 620.05c4.14-0.13 6.02 0.15 10.18 0.74l0.64-0.98 0.93 0.25c3.61 0.93 8.78 1.06 12.28 2 15.6 4.16 25.83 9.9 39.11 18.5q-3.49 4-7.25 7.76c-0.79 1.01-0.29 0.62-1.49 1.15-21.85-14.32-26.7-21.48-54.4-29.42z"/>
		<path class="s3" d="m74.94 620.05c4.14-0.13 6.02 0.15 10.18 0.74 16.2 6 34.77 12.6 45.71 27.53-0.79 1.01-0.3 0.62-1.49 1.15-21.85-14.32-26.7-21.48-54.4-29.42z"/>
		<path class="s4" d="m74.64 619.12c3.68-0.07 7.49-0.09 11.12 0.69l-0.64 0.97c-4.16-0.58-6.04-0.86-10.18-0.73z"/>
		<path class="s5" d="m183.27 749.36c1.65 1.62 2.26 7.83 5.29 9.67 3.2 1.95 6.06 2.91 9.5 4.12q-5.79 1.08-11.53 2.34c-1.21 3.18-1.91 5.59-2.82 8.87l-0.36 1.06c-1.32-2.39-1.14-5.63-3.38-9.41-2.63-1.49-5.73-2.4-8.62-3.4 3.65-1.18 5.58-2.21 8.64-4.34 1.83-3.52 2.22-5.12 3.28-8.91z"/>
		<path class="s3" d="m183.69 777.34c1.66 1.51 0.58 6.31 0.23 8.41l-0.82-0.82c-0.37-2.77 0.14-4.86 0.59-7.59z"/>
		<path class="s6" d="m215.16 672.59c4.07 4.48 7.07 7.89 11.43 12.24 26.19 26.61 57.89 47.16 92.87 60.21 4.19 1.55 14.4 5.36 18.49 5.36l0.83 0.47c5.16 2.98 10.59 7.2 15.68 10.49 29.61 19.16 62.24 31.96 96.86 38.62 10 1.92 20.11 3.37 30.05 5.31-7.63 9.55-17.3 19.08-25.27 28.51-4.62 5.45-8.85 11.23-13.67 16.52-13.52-2.83-33.21-9.1-46.12-13.9-78.99-29.34-145.9-86.57-181.15-163.83z"/>
		<path class="s3" d="m127.1 692.79c18.12-12.99 35-15.09 51.22 1.97 2.91 3.05 5.58 6.81 8.36 9.71l4.04 8.69c0.62 1.47 0.53 1.81 1.67 2.73 3.56-8.31 5.66-12.44 13.67-17.53 38.69 73.19 121.47 138.43 200.37 162.08 7.32 2.2 14.27 4.37 21.71 6.25-0.06 0.39-0.11 1.01-0.4 1.29-5.09 5-9.91 8.83-14.01 14.78l-1.19 1.72c-10.53-3.75-21.4-7.56-31.64-12.04-33.39-14.97-64.38-34.81-91.94-58.88-5.91-5.26-14.6-13.01-19.68-18.96-0.73-1-5.13-5.43-6.29-6.67q-6.49-6.94-12.56-14.26c-6.58-7.96-13.59-16.83-19.83-25.06-4.1-5.42-7.89-11.62-12.16-17.33-4.93 4.66-6.65 10.41-9.09 16.6-3.85-7.81-7.72-16.04-10.63-24.26-0.49-1.38-0.78-3.68-1.4-5.64-2.75-1.45-13.39 2.16-15.7 0.23 2.1-0.97 8.85 0.8 11.17-0.72-0.18-0.97-0.08-0.96-0.82-1.54-3.17-2.5-4.06-7.48-6.66-11.12-6.28-8.77-14.86-18.68-25.96-20.77-12.46-2.33-21.51 2.69-31.36 9.08z"/>
		<path class="s6" d="m106.25 711.1l0.6 1.32 0.5-0.33c2.12-14.6 17.15-31.53 29.35-39.22 15.02-9.46 31.67-11.68 48.87-7.49-2.36 10.58-3.79 16.67-0.88 27.47 0.63 2.33 2.01 9.45 1.99 11.62-2.78-2.9-5.45-6.66-8.36-9.71-16.23-17.06-33.1-14.96-51.22-1.97-11.66 7.94-16.25 17.15-21.82 28.99 0.11-1.62 0.61-9.71 0.97-10.68z"/>
		<path class="s6" d="m63.59 615.43c3.47 0 13.12-4.74 17.81-5.73 24.64-5.18 51.21 4.24 69.71 20.68 1.32 1.18 2.08 1.57 2.55 3.17-0.96 0.79-0.58 0.66-1.69 1-3.22-0.08-5.04 0.96-8.03 2.16-19.89-20.85-53.17-25.21-80.16-18.67l-7.19 2.8c2.15-1.91 4.51-4.02 7-5.41z"/>
		<path class="s6" d="m58.25 528.51c3.07-1.11 6.04-2.17 9.27-2.68l0.51 0.11c5.7 1.13 12.17 1.35 17.68 2.67 19.01 4.55 37.08 15.09 48.04 31.6 2.84 4.27 8.99 12.9 9.53 17.82l1 1.85c-3.01-1.1-14.42-18.65-18.06-20.32-1.56 0.25-2.8 0.78-4.05-0.42-9.67-9.03-20.82-16.32-32.98-21.53-4.21-1.83-11.63-4.36-15.2-6.62l0.08-0.67c-3.73-1.44-11.57-1.6-15.82-1.81z"/>
		<path class="s3" d="m74.07 530.32c22.41 4.58 42.73 16.33 57.88 33.48 3.62 4.04 7.94 10.83 11.33 14.23l1 1.85c-3.01-1.1-14.42-18.65-18.06-20.32-1.56 0.25-2.8 0.78-4.05-0.42-9.67-9.03-20.82-16.32-32.98-21.53-4.21-1.83-11.63-4.36-15.2-6.62z"/>
		<path class="s6" d="m190.72 713.16c1.61-11.71 2.95-16.38 10.17-25.77 1.85 3.28 3.6 7.47 5.17 10.97-8.01 5.09-10.11 9.22-13.67 17.53-1.14-0.92-1.05-1.26-1.67-2.73z"/>
		<path class="s3" d="m886.11 526.15c-6.13-5.2-13.08-26.88-10.54-35.06 0.43-1.4 2.57-3.05 4.04-3.35 19.47-3.89 39.83 4.91 55.97 15.2 4.6 2.93 8.33 6.76 12.76 8.94-3.17-7-9.62-15.03-14.46-21.07l0.98-1.37c6.39 5.62 23.45 30.36 26.35 38.08 1.93 2.93 4.14 5.27 2.52 8.87 2.85 5.14 6.32 10.66 8.68 15.95 9.64 21.65 11.38 46 4.9 68.8-7.51 25.91-25.11 47.71-48.84 60.53-16.4 8.87-33.91 13.85-52.64 11.45-1.81-0.24-10.96-2-11.78-0.78-2.68 4.05-3.86 9.18-6.36 13.4-2.56 5.83-9.52 15.12-11.46 20.04l-1.49 1.02 0.15 0.85c-0.3 2.08-0.43 2.06-1.82 3.7l-0.51 0.61c-4.9 6.53-8.84 13.79-13.53 20.32-14.91 20.78-32.28 39.6-50.54 57.45-0.61 0.59-1.15 1.83-1.48 2.6-2.95 2.42-4.92 4.09-7.59 6.79-3.86 1.71-8.7 5.74-12.25 8.23-8.06 5.65-15.95 11.64-24.03 17.27-20.55 13.58-44.14 25.98-67.23 34.48-39.69 15.03-81.79 22.72-124.24 22.68-13.76 0.03-30.43-1.89-44.22-1.06-3.83 0.24-10.75 4.61-14.55 5.99-19.85 9-39.83 17.74-59.76 26.54-12.19 5.38-24.28 12.23-36.77 16.79 14.03-14.76 28.29-29.27 41.84-44.48 2.25-2.53 4.77-5.48 7.16-7.84 4.98-2.07 10.13-6.44 14.88-8.37 9.09-3.49 21.82-13.08 30.83-15.1 8.25-1.85 21.53 0.82 30.7-0.7 6.7-6.77 26.3-17.95 35.1-23.46 26.61-16.68 59.32-36.33 81.27-59.05-8.82 2.82-18.14 4.02-27.28 5.24 7.1-6.25 20.61-11.42 29.32-15.69 69.11-33.91 125.17-91.17 152.97-163.43 2.87-7.47 5.08-14.77 7.63-22.31 3.63-0.92 24.21-23.13 28.16-27.91 10.8-13.08 22.55-30.14 26.82-46.65 1.45-5.61 1.24-14.3 0.75-20.01 6.97 3.72 16.27 11.88 16.6 20.4 4.06 3.25 8.75 5.73 13.02 8.76 5.52 3.92 10.12 8.26 14.95 12.94-0.79-3.95-3.46-12.29-4.98-16.22z"/>
		<path class="s6" d="m790.79 594.85c3.63-0.92 24.21-23.13 28.16-27.91 10.8-13.09 22.55-30.14 26.82-46.65 1.45-5.61 1.24-14.3 0.76-20.01 6.96 3.72 16.26 11.88 16.59 20.4l-0.06 0.49c-0.65 5.71-0.49 14.65-0.72 20.74q-0.68 17.33-3.32 34.46c-12.93 84.39-57.05 160.85-123.63 214.27-65.08 52.44-140.56 78.79-223.61 82.91 6.7-6.77 26.3-17.95 35.1-23.46 26.61-16.68 59.32-36.34 81.27-59.05-8.82 2.82-18.13 4.02-27.28 5.24 7.1-6.25 20.61-11.42 29.32-15.69 69.11-33.91 125.17-91.17 152.97-163.43 2.87-7.47 5.08-14.77 7.63-22.31z"/>
		<path class="s7" d="m886.11 526.15c-6.13-5.2-13.08-26.88-10.54-35.06 0.43-1.4 2.57-3.05 4.04-3.35 19.47-3.89 39.83 4.91 55.97 15.2 4.6 2.93 8.33 6.76 12.76 8.94 2.9 3.87 6.19 11.03 8.34 15.57-13.65-14.19-31.7-23.93-51.81-26.01-5.34-0.56-10.73 2.76-15.43 5.15-1.85-3.1-2.2-4.26-3.39-7.64-2.76 10.58-2.13 16.5 0.06 27.2z"/>
		<path class="s0" d="m961.21 527.52c1.93 2.93 4.13 5.27 2.52 8.87-2-3.33-2.92-5.05-2.52-8.87z"/>
		<path class="s8" d="m917.17 591.32c9.85-6.12 22.66-4.37 30.51 4.17 7.85 8.53 8.53 21.44 1.61 30.75-6.92 9.3-19.48 12.38-29.92 7.32-10.43-5.07-15.79-16.83-12.77-28.03q0.55-2.04 1.45-3.95c1.99-4.23 5.15-7.8 9.12-10.26z"/>
		<path class="s9" d="m893.96 588.1c0.92-7.1 1.5-14.54 2.15-21.69l7.6 11.61q0.73 0.2 1.46 0.39c4 4.43 7.66 8.79 12 12.91-3.97 2.46-7.14 6.03-9.12 10.26q-0.9 1.91-1.45 3.95c-3.38-6.83-7.97-11.44-12.64-17.43z"/>
		<path class="s0" d="m903.71 578.02q0.73 0.2 1.46 0.39c4 4.43 7.66 8.79 12 12.91-3.97 2.46-7.14 6.03-9.12 10.26-4.18-6.46-0.88-15.7-4.34-23.56z"/>
		<path class="s6" d="m785.23 398.17c14.48-11.84 28.22-24.55 41.13-38.07 5.66-5.96 18.55-21.25 24.11-25.59 3.72 5.62 8.36 15.96 10.99 22.28-16.29 18.29-32.88 36.7-51.61 52.46-4.14 3.49-12.23 10.69-16.72 13.52-1.28-7.19-5.2-17.88-7.9-24.6z"/>
		<path class="s10" d="m280.68 105.06c0.65 3.98 1.61 12.36 2.46 15.88 5.59-1.23 26.32 17.63 31.47 21.99l-0.18 0.6-1.7 1.02c-6.61-0.52-19.76 1.64-24.67 6.48-7.18 7.1-6.24 19.23-6.33 28.53-5.81-26.35-3.04-33.39-33.59-35.36 20.01-4.07 24.18-4.12 30.24-24.29 1.11-5.03 1.65-9.76 2.3-14.85z"/>
		<path class="s3" d="m283.14 120.94c5.59-1.23 26.32 17.63 31.47 21.99l-0.18 0.6c-18.88-2.6-25.72-2.2-31.29-22.59z"/>
		<path class="s11" d="m595.9 299.68c30 0.23 60.78 1.47 90.62 1.26-3.84 4.15-7.68 8.99-11.31 13.37q-18.9 21.82-38.53 42.98c-3.44 29.67-6.02 59.8-9.09 89.53l-11.15 104.94c-3.15 32.17-5.35 66.01-9.69 97.97-24.49-33.96-50.36-66.91-77.53-98.76-9.81-11.3-20.08-21.95-30.1-33.01-11.05-12.19-21.79-25.07-33.02-37.07-0.14 5.25-0.9 10.12-1.42 15.31-4.29 43.62-10.74 87.24-14.92 130.84-8.6 5.88-19.12 11.44-28.11 17.08-14.42 9.04-28.69 18.25-43.65 26.37 2.81-26.21 4.07-52.84 6.52-79.13 3.04-32.64 6.38-65.07 10.61-97.59 1.72-13.26 2.51-26.79 3.98-40.1q4.71-41.36 10.71-82.54c-19.02-20.17-39.58-39.67-59.26-59.22-3.68-3.02-9.03-8.44-12.37-12l52.32 0.96c10.53 0.14 25.64-0.07 35.75 1.17 4.16 5.05 7.97 11.23 11.7 16.64 16.49 23.87 34.65 46.52 52.37 69.47q23.92 30.81 46.31 62.74c6.19 8.93 13.19 18.89 18.66 28.19 1.15-2.62 3.28-27 3.91-32.07l8.24-63.37c1.15-9.52 3.08-22.46 3.13-31.75-2.42-3.6-5.1-8.32-7.35-12.09 0.96-1.3 1.28-1.71 2.44-2.91 3.35-5.74 10.68-13.71 15.13-19.1 4.93-5.95 10.05-12.32 15.1-18.11z"/>
		<path class="s5" d="m338.19 299.91l52.32 0.96c10.53 0.14 25.64-0.07 35.75 1.17 4.16 5.05 7.97 11.23 11.7 16.64 16.48 23.87 34.65 46.52 52.37 69.47q23.92 30.81 46.31 62.74c6.19 8.93 13.19 18.89 18.66 28.19 1.47 3.53 4.38 7.97 6.2 11.54 4.67 9.14 10.74 19.18 14.72 28.54-5.83-5.23-11.44-12.96-16.54-18.98-21.77-26.38-40.52-54.9-61.83-81.58-27.26-34.14-55.21-69.58-80.24-105.34-20.39 0.56-46.59-0.42-67.05-1.35-3.68-3.02-9.03-8.44-12.37-12z"/>
		<path class="s5" d="m595.9 299.68c30 0.23 60.78 1.47 90.62 1.26-3.84 4.15-7.68 8.99-11.31 13.37-25.07 0.51-56.29-0.32-81.46-1.2-3.28 3.05-25.31 23.45-28.08 23.78 3.35-5.74 10.68-13.71 15.13-19.1 4.93-5.95 10.05-12.32 15.1-18.11z"/>
		<path class="s12" d="m643.52 488.44c32.98-16.3 63.75-33.17 94.14-54 10.12-6.94 20.67-15.4 30.86-22.77 1.33 6.81 4.52 17.11 6.34 24.03q4.1 15.8 6.53 31.95c9.41 77.22-10.5 152.52-58.81 213.56-28.8 36.38-71.96 69.93-115.73 85.77 8.74-11.96 16.42-22.53 26.31-33.59l-47.26 1.61c12.2-5.64 21.41-10.08 33.2-16.64 0.32-10.65 1.87-22.6 3.02-33.26 0.67-6.24 1.22-13.96 2.15-19.95 0.33-4.05 1.13-9.06 1.67-13.16 1.53-10.84 2.77-22.12 4.07-33.01 0.38-4.49 0.72-9.08 1.28-13.54 1.23-20.56 4.95-42.1 6.62-62.72 0.46-5.76 0.87-12.98 1.8-18.57l1.13-9.36c1.17-8.79 1.51-17.61 2.68-26.35z"/>
		<path class="s13" d="m643.52 488.44c32.98-16.3 63.75-33.17 94.14-54 10.12-6.94 20.67-15.4 30.86-22.77 1.33 6.81 4.52 17.11 6.34 24.03q4.1 15.8 6.53 31.95l-0.73 0.35c-18.24 64.22-71.49 107.48-131.32 130.81-5.89 2.3-12.36 4.25-18.05 6.63 1.23-20.56 4.95-42.1 6.62-62.72 0.46-5.76 0.87-12.98 1.8-18.57l1.13-9.36c1.17-8.79 1.51-17.61 2.68-26.35z"/>
		<path class="s12" d="m640.84 514.79c45.93-10.94 84.28-33.45 115.53-69.07 4.29-4.89 8.17-10.15 12.36-15-3.19 6.85-7.73 12.99-11.95 19.15-22.17 32.3-54.21 54.84-90.93 67.82-3.12 1.1-23.3 8.22-25.46 8.01-0.57-0.9-0.47-0.55-0.68-1.55z"/>
		<path class="s13" d="m753.9 570.28c-2.27 8.75-5.96 16.11-10.07 24.22-25.08 49.51-68.57 90.55-115.66 119.18-1.8 1.1-7.18 4.02-9.07 4.68 0.32-10.65 1.87-22.6 3.02-33.26 0.67-6.24 1.22-13.96 2.15-19.95 2.2 0.96 13.28-3.95 16.23-5.12 35.08-13.46 66.5-34.98 91.73-62.82 6.61-7.43 16.24-21.46 21.67-26.93z"/>
		<path class="s13" d="m630.01 618.98c57.46-17.28 117.83-55.87 143.26-112.11 0.02 3.55-2.75 9.05-3.81 12.45-8.4 27.01-25.4 51.56-45.29 71.64-27.69 27.96-61.39 47.41-98.23 61.03 1.53-10.84 2.77-22.12 4.07-33.02z"/>
		<path class="s14" d="m350.87 374.43c2.15 6.28 3.99 15.21 8.01 19.88 2.45 2.85 5.83 5.59 8.19 8.43 3.95 4.21 8.12 8.84 12.24 12.83 4.11 5.55 7.95 11.24 12.74 16.19-0.47 3.36-1.91 16.82-2.8 19.14-1.39 11.02-3.09 25.11-3.85 36.14-0.41 3.36-1.87 19.77-2.7 21.91-0.41 4.15-1.11 9.49-1.3 13.57q-5.36 44.9-9.4 89.94c-0.3 3.19-2.39 32.05-2.74 32.88-0.25 2.63-0.73 6.66-0.74 9.16-24.67-0.29-61.58 2.63-84.08 13.4l-0.67-0.72c-10.15-13.01-23.75-41.34-30.06-56.57-1.14-4.04-3.79-10.19-5.26-14.95l-1.7-5.48c-3.76-11.97-5.52-25.09-7.34-37.49-0.36-1.42-0.48-3.61-0.61-5.13-1.56-7.38-2.36-19.13-2.33-26.59-0.04-34.64 5.92-69.01 17.62-101.61 3.2-8.8 7.44-18.21 11.28-26.76 10.81 12.14 21.81 23.62 34.04 34.33 3.81 2.89 5.39 4.2 9.68 6.31-2.29-3.73-4.84-7.56-7.21-11.25 2.43-1.83 8.3-8.94 10.93-11.46 8.38-8.07 28.97-30.53 38.06-36.1z"/>
		<path class="s13" d="m381.4 522.52q-5.36 44.9-9.4 89.94c-0.3 3.19-2.39 32.05-2.74 32.88-0.25 2.63-0.73 6.66-0.74 9.16-24.67-0.29-61.58 2.63-84.08 13.4l-0.67-0.72c-10.15-13.01-23.75-41.34-30.06-56.57 2.82-1.31 5.74-6.07 7.61-8.68 6.27-7.5 13.89-16.78 21.21-23.3 20.52-18.28 43.96-33.73 69.01-44.85q8.29-3.68 16.86-6.65c3.72-1.26 9.68-2.83 13-4.61z"/>
		<path class="s12" d="m283.77 667.18c1.85-1.49 3.52-2.46 5.62-3.56 20.61-10.8 43.8-16.02 66.75-18.95 2.8-0.35 9.49-1.66 12.21-1.06 0.68 0.15 0.63 0.8 0.91 1.73-0.25 2.63-0.73 6.66-0.74 9.16-24.67-0.29-61.58 2.63-84.08 13.4z"/>
		<path class="s14" d="m350.87 374.43c2.15 6.28 3.99 15.21 8.01 19.88 2.45 2.85 5.83 5.59 8.19 8.43-45.08 34.11-82.98 68.96-112.97 117.42-5.78 9.34-9.95 18.18-15.3 27.4-1.56-7.38-2.36-19.13-2.33-26.59-0.04-34.64 5.92-69.01 17.62-101.61 3.2-8.8 7.44-18.21 11.28-26.76 10.81 12.14 21.81 23.62 34.04 34.33 3.81 2.89 5.39 4.2 9.68 6.31-2.29-3.73-4.84-7.56-7.21-11.25 2.43-1.83 8.3-8.94 10.93-11.46 8.38-8.07 28.97-30.53 38.06-36.1z"/>
		<path class="s15" d="m236.47 520.97c-0.04-34.64 5.92-69.01 17.62-101.61 3.2-8.8 7.44-18.21 11.28-26.76 10.82 12.14 21.81 23.62 34.04 34.33-5.67 7.56-12.06 14.6-17.88 22.05q-15.37 19.89-28.71 41.2c-6.66 10.57-10.95 22.18-16.35 30.79z"/>
		<path class="s13" d="m248.45 595.66q0.74-1.24 1.5-2.45c26.39-42.13 62.81-71.25 106.73-94.08 6.98-3.63 21.38-10.41 28.72-12.09-0.41 3.36-1.87 19.77-2.7 21.91-0.41 4.15-1.11 9.49-1.3 13.57-3.32 1.78-9.28 3.35-13 4.61q-8.57 2.97-16.86 6.65c-25.05 11.12-48.49 26.57-69.01 44.85-7.32 6.52-14.94 15.8-21.21 23.3-1.87 2.61-4.79 7.37-7.61 8.68-1.14-4.04-3.79-10.19-5.26-14.95z"/>
		<path class="s12" d="m260.61 601.07c26.8-35.05 61.37-63.39 100.99-82.8 5.69-2.75 15.11-7.61 21.1-9.32-0.41 4.15-1.11 9.49-1.3 13.57-3.32 1.78-9.29 3.35-13 4.6q-8.57 2.98-16.86 6.66c-25.05 11.12-48.49 26.57-69.01 44.85-7.32 6.52-14.94 15.8-21.21 23.3z"/>
		<path class="s16" d="m253.71 610.61c0.82-1.86 5.47-7.71 6.9-9.54l0.71 0.86c-1.87 2.61-4.79 7.37-7.61 8.68z"/>
		<path class="s12" d="m246.75 590.18c9.13-25.77 44.28-64.4 64.1-83.58 11.57-10.58 24.77-21.89 37.51-30.87 4.89-3.44 37.24-25.44 40.9-24.83-1.4 11.02-3.1 25.11-3.86 36.14-7.34 1.68-21.74 8.46-28.72 12.09-43.92 22.83-80.34 51.95-106.73 94.08q-0.76 1.21-1.5 2.45z"/>
		<path class="s15" d="m367.07 402.74c3.95 4.21 8.12 8.84 12.25 12.83-5.3 4.92-13.44 8.53-19.43 12.84-36.33 26.12-71.4 55.65-99.1 90.99-5.45 6.95-9.96 14.83-14.71 22.24-1.66 2.61-5.14 9.05-6.67 11.05-0.36-1.42-0.48-3.61-0.61-5.13 5.35-9.22 9.52-18.06 15.3-27.4 29.99-48.46 67.89-83.31 112.97-117.42z"/>
		<path class="s17" d="m451.57 153.31c8.8-2.38 30.52-4.2 39.92-4.86 46.03-3.27 96.5 4.07 139.97 19.41 17.86 6.29 42.48 18.65 58.87 27.96 40.32 22.9 74.23 54.29 103.06 90.46q6.02 7.46 11.17 15.54c3.35 5.14 7.58 12.27 11.55 16.56-10.42 16.34-23.37 31.6-36.07 46.2-1.62 1.86-3.41 3.96-5.17 5.66-7.69-14.13-13.53-25.89-22.84-39.42-38.05-55.06-93.82-95.4-158.02-114.32-75.91-22.48-154.14-10.77-223.46 25.9-22.27 12.45-33.79 22.82-52.84 38.16-3.09-23.36-10.93-37.76-26.03-55.16 38.83-31.12 109.76-66.97 159.89-72.09z"/>
		<path class="s1" d="m291.68 225.4c38.83-31.12 109.76-66.97 159.89-72.09-1.33 0.55-2.43 0.94-3.67 1.65l1.17 0.19 0.56 0.83c-0.4 1.35-0.14 0.71-1.29 1.84 0.92 1.65 1.59 1.37 3.55 1.8 0.83 2.18-0.26 4.15-1.13 6.43-6.55 5.3-5.2 9.09-9.25 13.8-6.96 8.1-6.47 4.38-8.69 15.61l-0.56 0.36c-6.11 3.97-9.75 7.73-16.65 11.38-9.93 5.26-21.53 8.72-29.97 16.06-3.75 3.25-1.94 2.82-6.94 4.19-2.02 3.14-0.66 1.67-3.66 3.03-2.43 1.1-6.94 4.08-8.79 6.02-0.66 2.03-0.05 3.04-1.1 4.88-1.14 0.06-0.66 0.06-1.48 0.03q-1.58 1.21-3.2 2.37c2.22 1.04 4.53-0.57 6.45-1.62l3.63 0.24c-22.27 12.45-33.79 22.82-52.85 38.16-3.08-23.36-10.92-37.76-26.02-55.16z"/>
		<path class="s18" d="m639.04 135.17c13.04-10.04 44.19-18.55 60.38-24.4 7.29-2.63 17.75-3.52 25.43-5.25 25.12-4.83 50.35-6.77 75.83-3.49 30.96 4 65.75 16.74 85.28 42.19 15.63 20.36 21.02 49.15 17.41 74.33-8.9 62.07-53.58 115.06-97.55 156.89-11.06 10.52-23.73 22.46-35.71 31.6-31.42 23.64-64.58 44.87-99.21 63.51-4.04 2.21-18.41 9.96-22.5 10.95l-4.04 2.42c0.02-2.51-0.08-4.38 0.45-6.85 3.04-1.32 15.29-9.4 18.65-11.58-0.73-0.77-1.3-0.93-2.26-1.23-5.93 3.08-11.11 7.14-16.56 10.15q1.14-7.24 2.98-14.34c5.16-21.32 12.9-45.57 19.06-66.95 0.77-2.44 1.33-4.55 1.94-7.01 4.12-12.6 8.26-28.02 11.67-40.89q7.31-22.95 16.1-45.37c5.08 5.67 11.14 10.85 15.91 16.3 15.14 17.3 29.73 36.7 39.87 57.38 1.72 3.5 5.74 10.79 5.74 14.46l0.66 1.23-0.28 0.4c-0.74 1.05-1.21 1.45-1.14 2.71 4.47-3.66 10.71-10.68 15.02-15.19 38.38-40.36 78.38-92.19 79.87-150.4 1.74-68.09-58.08-101.08-118.81-101.81-8.62 0.69-17.47-1.18-26.08 0.41-1.14 1.91-3.13 2.4-5.32 2.7-24.21 3.36-46.99 8.05-69.37 18.38-4.15 1.91-11.11 4.23-14.03 7.88-1.39 1.8-2.34 4.21-4.39 5.43l-1.29 0.16c0.49-1.38 1.93-2.7 2.96-3.81-2.91 2.03-5.32 4.49-8.67 1.65 0.03-2.4 0.92 0.15 0.39-3.22 2.65-1.91 6.51-1.81 7.43-4.19-4.43 1.52-7.8 3.74-12.44 4.73 10.72-6.77 24.97-14.77 36.62-19.88z"/>
		<path class="s19" d="m639.04 135.17c13.04-10.04 44.19-18.55 60.38-24.4 7.29-2.63 17.75-3.52 25.43-5.25 25.12-4.83 50.35-6.77 75.83-3.49 30.96 4 65.75 16.74 85.28 42.19 15.63 20.36 21.02 49.15 17.41 74.33-8.9 62.07-53.58 115.06-97.55 156.89-11.06 10.52-23.73 22.46-35.71 31.6-31.42 23.64-64.58 44.87-99.21 63.51-4.04 2.21-18.41 9.96-22.5 10.95 1.33-2.33 16.22-10.6 19.35-12.53l26.37-16.65c19.29-12.02 33.61-21.56 51.43-35.95 34.29-27.66 63.96-55.12 90-91.08 28.35-39.15 54.86-85.86 47.19-136.2-6.11-37.44-33.6-61.63-68.97-71.22-32.05-8.69-62.72-10.63-95.65-4.68-8.82 1.59-17.54 2.65-26.22 4.99-17.6 4.8-34.77 10.61-51.86 16.87q-0.5 0.06-1 0.12z"/>
		<path class="s20" d="m696.39 299.85c5.08 5.66 11.14 10.85 15.91 16.3 15.14 17.29 29.73 36.7 39.87 57.38 1.72 3.5 5.74 10.79 5.74 14.46l-1.29 0.55q-2.98 2.84-6.06 5.56l-0.46-0.18c-4.45-4.21-71.47-7.56-81.48-7.81 4.12-12.6 8.26-28.02 11.67-40.89q7.31-22.95 16.1-45.37z"/>
		<path class="s14" d="m680.29 345.22c16.96 8.12 29.83 13.88 46.33 24.05 5.99 3.69 25.4 17.56 30 19.27q-2.98 2.84-6.06 5.56l-0.46-0.18c-4.45-4.21-71.47-7.56-81.48-7.81 4.12-12.6 8.26-28.02 11.67-40.89z"/>
		<path class="s14" d="m668.62 386.11c10.01 0.25 77.03 3.6 81.48 7.81l0.46 0.18c-18.12 18.09-48.24 42.4-70.05 56.07-4.93 4.6-13.54 10.31-19.31 14.09-5.93 3.08-11.11 7.14-16.56 10.15q1.14-7.24 2.98-14.35c5.16-21.31 12.9-45.56 19.06-66.94 0.77-2.44 1.33-4.55 1.94-7.01z"/>
		<path class="s15" d="m668.62 386.11c10.01 0.25 77.03 3.6 81.48 7.81-5.76 0.53-17.36-0.8-23.86-1.21-10.55-0.65-20.83-0.56-31.11-0.77-5.57-0.11-25.28 2.06-28.45 1.18 0.77-2.44 1.33-4.55 1.94-7.01z"/>
		<path class="s13" d="m647.62 460.06c2.07 0.11 8.53-3.44 11.7-4.28 5.93-1.57 15.35-5.08 21.19-5.61-4.93 4.6-13.54 10.31-19.31 14.09-5.93 3.08-11.11 7.14-16.56 10.15q1.14-7.24 2.98-14.35z"/>
		<path class="s21" d="m614.86 150.31c2.71-2.01 14.56-6.57 17.95-8.01 26.3-11.11 51.87-18.68 80.78-17.87 6.18 0.18 13.33-0.33 19.64 0.5-8.62 0.69-17.47-1.18-26.08 0.41-1.14 1.91-3.13 2.39-5.32 2.7-24.21 3.36-46.99 8.05-69.37 18.38-4.15 1.91-11.11 4.23-14.03 7.88-1.39 1.8-2.34 4.21-4.39 5.43l-1.29 0.15c0.49-1.37 1.93-2.69 2.96-3.8-2.91 2.03-5.32 4.49-8.67 1.65 0.03-2.4 0.92 0.15 0.39-3.22 2.65-1.91 6.51-1.82 7.43-4.2z"/>
		<path class="s3" d="m756.62 388.54l1.29-0.55 0.66 1.23-0.28 0.4c-0.74 1.05-1.21 1.45-1.14 2.71-3.07 3.54-11.13 10.84-14.81 14.03-24.04 20.82-51.91 42.22-78.88 59.13-0.73-0.77-1.3-0.93-2.26-1.23 5.77-3.78 14.38-9.49 19.31-14.09 21.81-13.67 51.93-37.98 70.05-56.07q3.08-2.72 6.06-5.56z"/>
		<path class="s20" d="m337.47 292.27c24.49-20.66 50.33-36.8 80.47-47.94 68.22-25.35 143.78-22.14 209.62 8.88q10.02 4.92 19.63 10.61c13.1 7.39 29.22 18.59 40.02 29.14q-47.99-0.19-95.96-1.41c-8.71 11.33-19.59 23.48-27.51 34.72q-8.87 10.72-17.93 21.28c-3.17 3.75-10.1 10.7-10.54 15.33-0.47 3.39-1.1 7.25-1.45 10.61-1.05 10.31-2.66 20.55-4.05 30.82l-0.85 7.59q-0.56 5.28-1.07 10.56c-2.16-2.77-4.31-5.46-6.29-8.37l-4.47-5.93c-6.42-8.73-13.13-17.12-19.59-25.79-1.44-1.72-3.35-4.59-4.71-6.51-6.44-8.89-13.05-17.54-19.48-26.5q-5.49-6.79-10.74-13.78c-7.58-10.08-14.88-19.64-22.28-29.92-3.24-4.35-5.93-7.92-9.49-12.04q-46.68-0.08-93.33-1.35z"/>
		<path class="s20" d="m337.47 292.27c24.49-20.66 50.33-36.8 80.47-47.94 68.22-25.35 143.78-22.14 209.62 8.88-6.03 1.03-13.38 0.87-19.61 1.38q-19.55 1.73-38.95 4.77c-41.18 6.5-82.78 21.89-119.59 41.4-2.95 1.56-6.11 3.56-9.12 4.9-3.24-4.35-5.93-7.92-9.49-12.04q-46.68-0.08-93.33-1.35z"/>
		<path class="s14" d="m627.56 253.21q10.02 4.92 19.63 10.61c-15.4 3.04-30.49 4.39-46.16 8-39.3 9.04-76.87 24.54-111.08 45.92-5.24 3.28-23.69 14.25-27.38 17.84-7.58-10.08-14.88-19.65-22.28-29.92 3.01-1.34 6.17-3.34 9.12-4.9 36.81-19.52 78.41-34.9 119.59-41.4q19.4-3.04 38.95-4.77c6.23-0.51 13.58-0.35 19.61-1.38z"/>
		<path class="s14" d="m473.31 349.36c19.38-10.24 68.65-23.39 90.43-23.09q-8.87 10.72-17.93 21.28c-3.17 3.75-10.1 10.7-10.54 15.33-0.47 3.39-1.1 7.25-1.45 10.61-1.05 10.31-2.66 20.55-4.05 30.82l-0.85 7.59q-0.56 5.28-1.07 10.56c-2.16-2.77-4.31-5.46-6.29-8.37l-4.47-5.93c-6.42-8.73-13.13-17.12-19.59-25.8-1.44-1.71-3.35-4.58-4.7-6.5-6.45-8.89-13.06-17.54-19.49-26.5z"/>
		<path class="s14" d="m497.5 382.37c5.47-1.79 35.35-7.73 36.32-8.88-1.05 10.31-2.66 20.55-4.05 30.82l-0.85 7.59q-0.56 5.28-1.07 10.56c-2.16-2.77-4.31-5.46-6.29-8.37l-4.47-5.93c-6.42-8.73-13.13-17.12-19.59-25.79z"/>
		<path class="s22" d="m517.09 408.16c4.6-1.95 7.83-2.78 12.68-3.85l-0.85 7.59q-0.56 5.28-1.07 10.56c-2.16-2.77-4.31-5.46-6.29-8.37z"/>
		<path class="s14" d="m521.56 414.09c2.86-1.54 4.13-1.99 7.36-2.19q-0.56 5.28-1.07 10.56c-2.16-2.77-4.31-5.46-6.29-8.37z"/>
		<path class="s22" d="m492.8 375.86c11.41-4.42 30.51-9.79 42.47-12.98-0.47 3.39-1.1 7.25-1.45 10.61-0.97 1.15-30.85 7.09-36.32 8.87-1.44-1.71-3.35-4.58-4.7-6.5z"/>
		<path class="s13" d="m474.57 577.38c8.78 9.41 16.97 19.5 25.42 29.21 16.46 18.89 32.91 37.48 48.86 56.82l10.02 11.55c2.74 2.99 4.67 5.15 7.09 8.38-4.24 4.25-11.42 9.67-16.22 13.47q-11.3 8.86-22.39 17.98l-45.31 36.53c-10.73 8.71-23.25 19.36-34.32 27.44q-4.64-1.08-9.24-2.31c-53.71-14.38-101.69-44.93-137.44-87.52-4.7-5.57-13.15-14.98-16.6-21.03 22.5-10.77 59.41-13.69 84.08-13.4-0.49 6.77-0.88 15.15-2.52 21.63 2.02 4.79 4.22 14.02 5.54 19.26q6.9 28.44 11.99 57.25c8.8-5.4 18.41-12.46 26.98-18.45l34.78-24.06c7.91-5.56 15.63-11.36 23.65-16.77 0.13-6.29 0.62-12.11 1.05-18.36 0.38-4.3 0.45-7.84 0.49-12.17 0.4-27.91 2.73-57.5 4.09-85.45z"/>
		<path class="s13" d="m474.57 577.38c8.78 9.41 16.97 19.5 25.42 29.21 16.46 18.89 32.91 37.48 48.86 56.82-20.82 3.19-57.46 1.58-78.37-0.58 0.4-27.91 2.73-57.5 4.09-85.45z"/>
		<path class="s12" d="m470.48 662.83c20.91 2.16 57.55 3.77 78.37 0.58l10.02 11.55c-2.6 1.13-21.05 2.14-24.91 2.21-21.22 0.4-42.79-0.84-63.97-2.17 0.38-4.3 0.45-7.84 0.49-12.17z"/>
		<path class="s5" d="m216.97 211.69c8.72-1.23 21.83 0.2 30.28 2.72 18.97 5.57 34.93 18.47 44.35 35.86 21.38 39.58 5.18 80.43-33.17 101.17 3.16 5.54 5.03 9.68 7.59 15.47-1.06 4.39-2.02 7.35-3.51 11.63-6.06 0.1-12.07 0.37-18.01-0.79-3.62-0.88-7.9-12.99-9.54-16.74-4.75 0.04-9.22 0.07-13.96-0.35-34.51-3.05-64.12-31.15-68.36-65.62-2.66-20.25 2.93-40.73 15.51-56.82 12.11-15.27 29.59-24.23 48.82-26.53z"/>
		<path class="s0" d="m223.31 216.22c6.04-0.32 12.1 0.2 18.01 1.53 18.24 4.19 34.05 15.49 43.91 31.39 20.24 32.72 11.09 72.15-19.66 94.06-3.2 2.29-6.33 4.28-9.67 6.34 4.75 8.67 4.54 14.11 2.18 23.21q-1.19-0.05-2.38-0.13c-5.23-0.37-12.53-1.3-16.11-5.41-3.06-4.56-3.38-5.73-4.44-11.08-20.07 1.09-38.57-4.07-53.94-17.44-14.57-12.77-23.39-30.87-24.45-50.21-1.26-17.85 4.71-35.45 16.56-48.85 13.55-15.29 29.9-22.25 49.99-23.41z"/>
		<path class="s5" d="m221.57 223.57c31.5-4.66 63.85 21.6 68.24 52.86 7.85 55.95-54.54 96.37-100.92 60.53-13.52-10.51-22.25-26-24.23-43.01-0.43-3.62-0.57-6.84-0.27-10.47-0.58-15.58 5.17-30.74 15.94-42.03 10.77-11.28 25.64-17.73 41.24-17.88z"/>
		<path class="s23" d="m221.57 223.57c31.5-4.66 63.85 21.6 68.24 52.86 7.85 55.95-54.54 96.37-100.92 60.53-13.52-10.51-22.25-26-24.23-43.01-0.43-3.62-0.57-6.84-0.27-10.47 0.6 16.02 7.82 31.07 19.95 41.55 12.12 10.49 28.06 15.46 43.99 13.74 12.42-1.34 24.07-6.68 33.21-15.2 17.42-16.26 23.07-41.55 14.22-63.68-8.84-22.12-30.37-36.55-54.19-36.32z"/>
		<path class="s24" d="m228.33 338.77c12.42-1.34 24.07-6.68 33.21-15.2-5.38 9.72-26.68 18.01-37.35 15.94z"/>
		<path class="s25" d="m228.74 243.2c1.6-0.2 4.34-0.19 6.01-0.11 6.8 0.31 13.21 3.29 17.83 8.29 21.5 23.64-8.95 37.43-9.08 51.25-0.03 3.73 3.88 3.71 5.76 6.1 1.47 1.85 1.68 5.08 1.24 7.33-0.61 3.04-2.6 5.66-5.19 7.32-3.09 2-7.32 2.86-10.9 1.84-3.29-0.93-6.41-3.52-8.04-6.51-3.62-6.61-3.54-14.13-1.53-21.19 2.57-5.91 7.06-10.79 11.14-16.1 4.28-5.58 4.25-12.08-1.82-16.59-2.69-1.99-7.25-2.7-10.56-1.73-7.78 2.28-10.75 8.55-13.94 15.23-0.56 1.43-2.73 3.54-4.36 3.65-4.72 0.31-14.6-5.31-14.95-10.49-0.18-2.68 3.94-8.38 5.7-10.49 9.01-10.74 18.67-16.5 32.69-17.8z"/>
		<path class="s26" d="m565.01 699.26c10.45-8.63 20.64-16.27 31.15-24.58l-25.04 39.69c-2.79 4.35-19.99 29.74-20.68 32.3 7.92-2.12 40.11-2.69 49.53-2.7l8-0.49c-19.47 9.93-38.32 20.37-58.53 28.75-2.57 1.06-6.15 2.68-8.5 4.09 15.3 3.67 29.82 8.14 44.73 11.78l0.95 0.7c-1.69 2.49-26.29 16.36-30.59 18.85q-34.36 19.81-68.51 39.98l-37.4 22.55c-2.67 1.63-16.73 10.7-18.39 11.11l-0.11-0.48c-2.01-1.72-1.43-2.6-1.11-4.93 16.66-18.16 34-36.83 50.26-55.26q13.32-15.76 26.88-31.31-0.95-0.07-1.89-0.17c-5.24-0.59-43.49-6.18-44.87-7.92l0.94-0.95c2.11-2.01 7.72-6.04 10.24-8.02l20.79-16.42q35.72-28.74 72.15-56.57z"/>
		<path class="s27" d="m585.67 788.1l0.95 0.7c-1.69 2.49-26.29 16.36-30.59 18.85q-34.36 19.81-68.51 39.98l-37.4 22.55c-2.67 1.63-16.73 10.7-18.39 11.11l-0.11-0.48c-2.01-1.72-1.43-2.6-1.11-4.93 16.66-18.16 34-36.83 50.26-55.26 4.23 7.49 8.91-0.21 15.77 6.57 1.99-0.39 10.96-6.39 13.61-7.63 16.88-7.88 33.78-15.77 50.84-23.25 3.65-1.6 6.11-2.6 10.06-3.21 5.89-1.07 9.37-1.93 14.62-5z"/>
		<path class="s28" d="m480.77 820.62c4.23 7.49 8.91-0.21 15.77 6.57-15.72 10.38-30.17 23.53-44.33 35.94-5.8 5.07-15.53 12.4-20.59 17.68-2.01-1.72-1.43-2.6-1.11-4.93 16.66-18.16 34-36.83 50.26-55.26z"/>
		<path class="s28" d="m565.01 699.26l2.56-0.01 0.52 0.68c-1.34 5.24-71.93 69.54-81.64 75.07-3.39 1.93-18.43 6.59-23.19 5.73-0.51-0.09-0.86-0.24-1.43-0.46 2.11-2.01 7.72-6.04 10.24-8.02l20.79-16.42q35.72-28.74 72.15-56.57z"/>
		<path class="s28" d="m540.94 776.32c15.3 3.67 29.82 8.14 44.73 11.78-5.25 3.07-8.73 3.93-14.62 5-8.78 0.11-19.87-2.83-28.57-4.51-6.58-1.26-14.23-2.33-20.56-3.95 5.43-2.19 14.01-5.58 19.02-8.32z"/>
		<path class="s28" d="m550.44 746.67c7.91-2.12 40.11-2.69 49.53-2.7-2.7 1.96-8.54 3.89-11.89 4.98-16.56 5.39-26.68 5.39-43.6 2.75 2.03-1.84 3.71-3.41 5.96-5.03z"/>
		<path class="s20" d="m328.89 299.53c1.89 6.88 4.04 13.5 5.88 20.51 5.35 17.15 10.35 38.22 16.1 54.39-9.09 5.57-29.68 28.03-38.06 36.1-2.63 2.52-8.5 9.63-10.93 11.46-6.68-10.1-12-20.89-17.09-31.86-3.94-8.92-7.51-18.88-10.99-28.05 21.56-8.59 32.36-29.76 40.65-49.88 0.57-1.39 12.32-10.8 14.44-12.67z"/>
		<path class="s14" d="m328.89 299.53c1.89 6.88 4.04 13.5 5.88 20.51-8.3 8.96-15.02 15.98-22.42 25.72-10.86 14.29-18.2 29.6-27.56 44.37-3.94-8.92-7.51-18.88-10.99-28.05 21.56-8.59 32.36-29.76 40.65-49.88 0.57-1.39 12.32-10.8 14.44-12.67z"/>
		<path class="s10" d="m776.88 181.46c0.23 0.36 2.76 7.99 3.54 9.82 3.99 2.66 7.98 3.67 12.53 5.03-10.93 2.29-12.22 2.96-16.07 13.39-3.72-10.74-4.93-11.24-15.72-13.71 4.11-1.28 7.5-2.32 11.49-4.02 2.15-3.46 3.22-6.62 4.23-10.51z"/>
		<path class="s29" d="m430.51 875.88c-0.32 2.33-0.9 3.21 1.11 4.93l0.11 0.48c-4.95 2.62-12.48 8.77-18.34 12.16 6.12-6.06 11.44-11.06 17.12-17.57z"/>
		<path class="s1" d="m878.92 363.36c12.41-4.72 24.1-9.82 37.33-11.34 2.57-0.29 5.43-1.55 8.01-1.19-4.55 2.06-8.45 3.07-13.26 5.44-15.72 7.53-27.93 20.84-34.06 37.16-2.46 6.57-3.67 13.55-3.57 20.57 7.68-24.62 15.82-30.84 38.36-44.11-5.43 5.11-11.14 10.91-14.48 17.67 0.82 1.59-1.39 11.97-1.78 14.86 3.38-3.75 5.74-8.25 8.95-12.2 8.96-11.04 22.06-19.21 36.33-21.09-11.81 7.76-16.68 13.99-23.99 26.36-1 1.69-3.31 5.74-3.71 7.5 13.81 0.35 48.72 6.43 60.61 12.94-12.86-2.05-27.53-1.12-39.77 3.59 2.85 1.35 10.84 1.87 14.51 2.59 19.82 3.86 36.89 6.3 54.83 16.47-21.87-1.85-43.59 5.02-60.43 19.11-8.55 7.12-12.22 12.36-19.56 19.83l4.42 4.31c2.38 2.48 4.93 5.05 7.21 7.61l-0.99 1.37c4.84 6.04 11.29 14.07 14.46 21.07-4.42-2.18-8.16-6.01-12.76-8.94-16.14-10.29-36.5-19.09-55.97-15.2-1.47 0.3-3.61 1.95-4.04 3.35-2.54 8.18 4.41 29.86 10.54 35.06 1.52 3.94 4.19 12.28 4.98 16.23-4.83-4.68-9.43-9.02-14.95-12.94-4.27-3.03-8.96-5.51-13.02-8.76-0.32-8.52-9.63-16.68-16.59-20.4 0.48 5.71 0.69 14.4-0.76 20.01-4.27 16.51-16.02 33.56-26.82 46.65-3.95 4.78-24.53 26.99-28.16 27.91 13.53-48.54 18.12-94.19 9.07-144.29-1.69-9.39-4.26-18.58-6.73-27.79 4.49-2.83 12.58-10.03 16.73-13.52 18.72-15.76 35.31-34.17 51.6-52.46 1.85 4.37 4.05 9.25 5.71 13.65 3.46-2.42 9.53-5.44 11.76-7.08z"/>
		<path class="s3" d="m886.5 469.86c7.67-23.99 22.91-42.67 47.39-50.34 2.85 1.35 10.84 1.87 14.51 2.59 19.82 3.86 36.89 6.3 54.83 16.47-21.87-1.85-43.6 5.02-60.43 19.11-8.55 7.12-12.22 12.36-19.56 19.83l4.42 4.31-1.27 0.84c-4.9-4.74-16.41-14.93-22.54-17.88l0.15-0.82c13.38-18.28 27.28-29.13 50.03-34.05-0.79-0.42-2.15-0.87-3.03-1.2q-5.04 1.12-10.03 2.43c-18.55 4.74-35.67 10.04-47.27 26.3-3 4.21-4.63 8.08-7.2 12.41z"/>
		<path class="s0" d="m904 463.97c13.38-18.28 27.28-29.13 50.03-34.05-1.74 4.48-23.2 15.86-28.24 20.99-3.72 3.79-9.23 10.61-13.56 13.19-1.94 1.17-5.86 0.27-8.23-0.13z"/>
		<path class="s2" d="m951 428.72c4.74-0.63 7.69-1.03 12.42-1.06-3.69 1.14-5.59 1.78-9.39 2.26-0.79-0.42-2.15-0.87-3.03-1.2z"/>
		<path class="s3" d="m895.47 402.42c3.38-3.75 5.74-8.25 8.95-12.2 8.96-11.04 22.06-19.21 36.33-21.09-11.81 7.76-16.68 13.99-23.99 26.36-1 1.69-3.31 5.74-3.72 7.5-8.8 0.16-16.74 1.44-24.72 5.3 1.92-8.23 4.24-13.83 8.93-20.73 0.82 1.59-1.4 11.97-1.78 14.86z"/>
		<path class="s30" d="m927.66 481.83c2.38 2.48 4.93 5.05 7.21 7.61l-0.99 1.37c-2.42-2.85-4.91-5.44-7.49-8.14z"/>
		<path class="s8" d="m252.74 915.97c-15.35-7.96-23.81-24.92-20.95-41.97 2.87-17.06 16.42-30.31 33.53-32.81 17.11-2.49 33.88 6.34 41.5 21.86 3.07 0.53 6.87 3.22 9.05 5.38 7.37 7.3 11 18.44 9.33 28.68-0.63 3.86-2.26 7.68-2.83 11.43l-2.33 3.53c-3.81 4.43-7.45 10.01-12.32 13.55-13.2 9.58-35.12 11.21-48.06 0.25-2.18-1.85-6.56-7.1-6.92-9.9z"/>
		<path class="s3" d="m306.82 863.05c3.07 0.53 6.87 3.22 9.05 5.38 7.37 7.3 11 18.44 9.33 28.68-0.63 3.87-2.26 7.68-2.83 11.44l-2.33 3.52c-3.81 4.43-7.45 10.01-12.32 13.55-13.2 9.58-35.12 11.21-48.06 0.25-2.18-1.85-6.56-7.1-6.92-9.9 15.27 7.91 33.89 5.13 46.19-6.89 12.29-12.03 15.48-30.59 7.89-46.03z"/>
		<path class="s8" d="m777.01 812.33c13.07-5.88 25.75-5.65 35.86 6.19 1.64 1.93 2.49 3.96 3.83 6.08l0.89-0.19c13.63 10.55 17.6 27.57 7.06 42.02-9.83 13.49-28.66 13.36-40.64 3.03-2.31-1.95-6.84-6.23-7.43-9.13-15.52-12.19-15.7-24.82-7.16-41.21 2.67-2.7 4.64-4.37 7.59-6.79z"/>
		<path class="s3" d="m816.7 824.6l0.89-0.19c13.63 10.55 17.6 27.57 7.06 42.02-9.83 13.49-28.66 13.36-40.64 3.03-2.31-1.95-6.84-6.23-7.43-9.13 18.83 8.49 37.85 3.1 42.21-20.14 0.99-5.33-0.36-10.53-2.09-15.59z"/>
		<path class="s0" d="m741.17 876.95c11.29-0.87 21.17 7.52 22.15 18.81 0.98 11.28-7.31 21.25-18.58 22.34-11.44 1.1-21.57-7.33-22.56-18.77-1-11.44 7.54-21.5 18.99-22.38z"/>
		<path class="s3" d="m56.69 642.84c9.44-2.13 18.81 3.83 20.9 13.27 2.09 9.45-3.9 18.8-13.35 20.85-9.41 2.04-18.7-3.91-20.77-13.3-2.08-9.4 3.83-18.71 13.22-20.82z"/>
		<path class="s0" d="m128.92 140.59c8.83-0.94 16.78 5.4 17.82 14.22 1.04 8.82-5.21 16.84-14.02 17.98-5.78 0.75-11.53-1.67-15.03-6.33-3.51-4.66-4.24-10.85-1.92-16.2 2.32-5.36 7.35-9.05 13.15-9.67z"/>
		<path class="s10" d="m867.27 697.26c0.32 7.82-0.32 16.64 5.5 22.25 1 0.68 2.57 1.82 3.56 2.4 3.1 2.61 9.35 3.89 13.42 4.99-19.03 6.22-18.74 6.55-24.22 25.22-1.3-6.22-2.09-9.94-4.69-15.68-3.84-0.55-12.1-2.63-16.41-3.51l-1.87-0.97 0.51-0.61c1.39-1.64 1.52-1.62 1.82-3.7l-0.14-0.85 1.48-1.02c16.07-2.41 17.77-15.72 21.04-28.52z"/>
		<path class="s3" d="m844.89 727.65c2.16 0.76 3.9 1.32 6.11 1.92 3.87 1.65 7.87 2.95 9.84 6.87-3.84-0.55-12.1-2.63-16.41-3.51l-1.87-0.97 0.51-0.61c1.39-1.64 1.52-1.62 1.82-3.7z"/>
		<path class="s9" d="m844.89 727.65c2.16 0.76 3.9 1.32 6.11 1.92-2.27 3.12-3.04 2.14-6.57 3.36l-1.87-0.97 0.51-0.61c1.39-1.64 1.52-1.62 1.82-3.7z"/>
		<path class="s31" d="m145.71 492.49l0.91 0.18c1.19 2 0.81 25.89 0.82 29.89-5.94-2.02-11.86-3.18-17.98-4.44-2.72-0.51-5.64-0.93-8.38-1.37 4.86-12.57 11.7-20.18 24.63-24.26z"/>
		<path class="s8" d="m322.37 908.54c5.47-5.11 12.24-7.84 18.81-1.65 2.89 2.72 2.64 6.14 3.71 9.51-0.3 8.14-5.79 11.39-13.51 11.47-9.35-1.82-11.6-7.11-11.34-15.8z"/>
		<path class="s3" d="m344.89 916.39l0.5-1.21c4.2-0.67 9.62 6.05 9.82 9.05 1.01 15.11-21.06 21.4-25.1 4.47 0.6-0.86 0.19-0.56 1.28-0.83 7.71-0.08 13.2-3.33 13.5-11.48z"/>
		<path class="s10" d="m102.78 386.64c1.18 3.14 0.51 4.37 2.82 8.03 3.45 5.45 8.01 6.41 13.89 7.88-11.01 2.66-12.87 3.23-16.07 14.71l-0.41 0.32c-3.17-9.34-4.1-13.61-14.89-14.97 11.01-3.05 12.29-4.93 14.66-15.97z"/>
		<path class="s3" d="m892.02 732.17l0.93 0.06c-1.24 1.38-5.15 2.31-7.03 3.35-9.54 5.28-10.83 14.22-12.71 24.06l-0.43-0.15c-1.32-4.47-1.16-14.86-0.52-19.51 5.14-4.73 12.94-7.01 19.76-7.81z"/>
		<path class="s30" d="m100.72 551.59l-0.43 1.44q1.71 1.93 3.37 3.92c-2.52-1.94-4.73-4.12-7.25-5.97-2.45-1.8-5.3-3.24-7.81-5.03 2.2 0.37 3.33 1.13 5.41 1.76 2.07 1.13 4.85 2.53 6.71 3.88z"/>
		<path class="s30" d="m872.77 719.51c-0.12-2.93-0.36-5.96 0.02-8.85 0.79 0.57 3.47 9.97 3.54 11.25-0.99-0.58-2.56-1.72-3.56-2.4z"/>
	</g>
</svg>