<svg version="1.2" xmlns="http://www.w3.org/2000/svg" viewBox="0 0 421.17098792298776 448.1819538942957" width="422" height="449">
	<style>
		.s0 { fill: #2d2d2d } 
	</style>
	<g id="Layer 1">
		<path class="s0" d="m291.67 44.14c29.11 0.24 58.99 1.44 87.95 1.24-3.73 4.03-7.45 8.72-10.98 12.98q-18.34 21.17-37.4 41.71c-3.33 28.79-5.84 58.04-8.81 86.89l-10.82 101.84c-3.07 31.23-5.2 64.07-9.41 95.08-23.77-32.95-48.88-64.93-75.25-95.84-9.51-10.97-19.48-21.31-29.21-32.04-10.73-11.83-21.15-24.33-32.05-35.97-0.14 5.09-0.88 9.82-1.38 14.85-4.16 42.34-10.43 84.68-14.47 126.98-8.35 5.71-18.56 11.11-27.28 16.58-14 8.78-27.85 17.71-42.37 25.6 2.72-25.44 3.95-51.28 6.33-76.8 2.95-31.68 6.19-63.15 10.3-94.72 1.66-12.86 2.43-26 3.86-38.91q4.56-40.14 10.4-80.11c-18.47-19.58-38.42-38.5-57.52-57.48-3.57-2.92-8.76-8.18-12.01-11.64l50.78 0.93c10.22 0.13 24.89-0.07 34.69 1.14 4.04 4.89 7.75 10.89 11.36 16.14 15.99 23.18 33.64 45.16 50.83 67.43q23.22 29.9 44.95 60.89c6 8.66 12.8 18.33 18.11 27.35 1.11-2.53 3.18-26.19 3.79-31.12l8-61.5c1.11-9.24 2.99-21.8 3.04-30.82-2.36-3.48-4.95-8.07-7.14-11.73 0.94-1.26 1.25-1.65 2.37-2.82 3.26-5.57 10.37-13.31 14.68-18.54 4.79-5.78 9.76-11.96 14.66-17.59z"/>
	</g>
</svg>